# xmcd
#
# Track frame offsets:
#	150
#	13550
#	36405
#	63810
#	83375
#	98975
#	138265
#	169915
#	190615
#	224910
#	252210
#
# Disc length: 3761 seconds
#
# Revision: 1
# Processed by: cddbd v1.4PL0 Copyright (c) Steve Scherf et al.
# Submitted via: CDmax 2.0
#
DISCID=900eaf0b
DTITLE=Acoustic Hot Tuna - Jorma, Jack w/ Barry Mitterhoff - Acoustic Hot Tun
DTITLE=a - Live in Minneapolis, MN - 12.13.03 - d1
DYEAR=2003
DGENRE=Blues
TTITLE0=Intro
TTITLE1=Big River Blues
TTITLE2=New Song (For The Morning)
TTITLE3=I'll Be All Right Someday
TTITLE4=Another Man Done Gone
TTITLE5=Keep Your Lamps Trimmed And Burning
TTITLE6=I See The Light
TTITLE7=I'll Let You Know Before I Leave
TTITLE8=Prohibition Blues
TTITLE9=Day To Day Out The Window Blues
TTITLE10=Heart Temporary
EXTD=Hot Tuna\n12-13-03\nThe Cedar Cultural Center\nMinneapolis, MN\n\nSource
EXTD=: (FOB, DFC, MS) ADK A51 TL(card/figure 8) > V3 > AD1000 > DA-P1\n\nConv
EXTD=ersion: DAT > Audition 1.0 (add fades) > CD Wave > .Flac (level8]\nRecor
EXTD=ded/Converted by Eric Swanson, whompinjack@yahoo.com\n\nDisc #1\n01. Int
EXTD=ro\n02. Big River Blues\n03. New Song (For The Morning]\n04. I'll Be Al
EXTD=l Right Someday\n05. Another Man Done Gone >\n06. Keep Your Lamps Trimme
EXTD=d And Burning\n07. I See The Light\n08. I'll Let You Know Before I Leave
EXTD=\n09. Prohibition Blues\n10. Day To Day Out The Window Blues\n11. Hear
EXTD=t Temporary\n\nDisc #2\n01. Tom Cat Blues\n02. Living In The Moment\n03
EXTD=Good Shepherd\n04. I Am The Light Of This World\n05. A Life Well Lived
EXTD=\n06. Red River Blues\nEncore:\n07. Nine Pound Hammer\nEncore 2:\n08. Sa
EXTD=n Francisco Bay Blues
EXTT0=
EXTT1=
EXTT2=
EXTT3=
EXTT4=
EXTT5=
EXTT6=
EXTT7=
EXTT8=
EXTT9=
EXTT10=
PLAYORDER=
